<svg width="40" height="40" viewBox="0 0 40 40" fill="none" xmlns="http://www.w3.org/2000/svg">
<rect width="40" height="40" rx="20" fill="white"/>
<path d="M19.2966 11.9009C19.5382 11.2479 20.4618 11.2479 20.7034 11.9009L22.5812 16.9757C22.6572 17.181 22.819 17.3428 23.0243 17.4188L28.0991 19.2966C28.7521 19.5382 28.7521 20.4618 28.0991 20.7034L23.0243 22.5812C22.819 22.6572 22.6572 22.819 22.5812 23.0243L20.7034 28.0991C20.4618 28.7521 19.5382 28.7521 19.2966 28.0991L17.4188 23.0243C17.3428 22.819 17.181 22.6572 16.9757 22.5812L11.9009 20.7034C11.2479 20.4618 11.2479 19.5382 11.9009 19.2966L16.9757 17.4188C17.181 17.3428 17.3428 17.181 17.4188 16.9757L19.2966 11.9009Z" fill="#181818"/>
</svg>
