<svg width="52" height="52" viewBox="0 0 52 52" fill="none" xmlns="http://www.w3.org/2000/svg">
<path fill-rule="evenodd" clip-rule="evenodd" d="M7.80047 26C7.80047 25.4828 8.00591 24.9868 8.37161 24.6211C8.7373 24.2554 9.2333 24.05 9.75047 24.05H37.4093L26.5985 13.754C26.4052 13.5787 26.249 13.3663 26.1393 13.1295C26.0296 12.8927 25.9685 12.6363 25.9597 12.3755C25.9509 12.1147 25.9945 11.8548 26.088 11.6111C26.1815 11.3675 26.3229 11.145 26.504 10.9571C26.685 10.7691 26.9019 10.6193 27.1418 10.5167C27.3818 10.4141 27.6399 10.3607 27.9009 10.3597C28.1618 10.3586 28.4204 10.41 28.6611 10.5107C28.9019 10.6114 29.12 10.7594 29.3025 10.946L43.6025 24.596C43.7912 24.7779 43.9413 24.996 44.0438 25.2372C44.1464 25.4784 44.1992 25.7379 44.1992 26C44.1992 26.2621 44.1464 26.5215 44.0438 26.7628C43.9413 27.004 43.7912 27.2221 43.6025 27.404L29.3025 41.054C29.12 41.2405 28.9019 41.3886 28.6611 41.4893C28.4204 41.59 28.1618 41.6413 27.9009 41.6403C27.6399 41.6393 27.3818 41.5859 27.1418 41.4833C26.9019 41.3806 26.685 41.2309 26.504 41.0429C26.3229 40.8549 26.1815 40.6325 26.088 40.3889C25.9945 40.1452 25.9509 39.8853 25.9597 39.6245C25.9685 39.3636 26.0296 39.1072 26.1393 38.8705C26.249 38.6337 26.4052 38.4213 26.5985 38.246L37.4093 27.95H9.75047C9.2333 27.95 8.7373 27.7445 8.37161 27.3788C8.00591 27.0132 7.80047 26.5172 7.80047 26Z" fill="#353535"/>
</svg>
