<svg width="52" height="52" viewBox="0 0 52 52" fill="none" xmlns="http://www.w3.org/2000/svg">
<path fill-rule="evenodd" clip-rule="evenodd" d="M44.1995 26C44.1995 26.5172 43.9941 27.0132 43.6284 27.3789C43.2627 27.7446 42.7667 27.95 42.2495 27.95H14.5907L25.4015 38.246C25.5948 38.4213 25.751 38.6337 25.8607 38.8705C25.9704 39.1073 26.0315 39.3637 26.0403 39.6245C26.0491 39.8853 26.0055 40.1452 25.912 40.3889C25.8185 40.6325 25.6771 40.8549 25.496 41.0429C25.315 41.2309 25.0981 41.3806 24.8582 41.4833C24.6182 41.5859 24.3601 41.6393 24.0991 41.6403C23.8382 41.6413 23.5796 41.59 23.3389 41.4893C23.0981 41.3886 22.88 41.2405 22.6975 41.054L8.39753 27.404C8.20881 27.2221 8.05869 27.004 7.95616 26.7628C7.85363 26.5215 7.80078 26.2621 7.80078 26C7.80078 25.7379 7.85363 25.4785 7.95616 25.2372C8.05869 24.996 8.20881 24.7779 8.39753 24.596L22.6975 10.946C22.88 10.7595 23.0981 10.6114 23.3389 10.5107C23.5796 10.41 23.8382 10.3587 24.0991 10.3597C24.3601 10.3607 24.6182 10.4141 24.8582 10.5167C25.0981 10.6194 25.315 10.7691 25.496 10.9571C25.6771 11.1451 25.8185 11.3675 25.912 11.6111C26.0055 11.8548 26.0491 12.1147 26.0403 12.3755C26.0315 12.6363 25.9704 12.8927 25.8607 13.1295C25.751 13.3663 25.5948 13.5787 25.4015 13.754L14.5907 24.05H42.2495C42.7667 24.05 43.2627 24.2554 43.6284 24.6211C43.9941 24.9868 44.1995 25.4828 44.1995 26Z" fill="#CDCDCD"/>
</svg>
